<svg width="700" height="400" viewBox="0 0 700 400" fill="none" xmlns="http://www.w3.org/2000/svg">
<rect width="700" height="400" fill="#8C79B0"/>
<g filter="url(#filter0_d)">
<path d="M204.429 193.228H199.956V160.523H204.398L204.429 193.228Z" fill="white"/>
<path d="M232.826 193.228H228.783V178.561C228.894 176.928 228.51 175.299 227.68 173.884C227.19 173.311 226.564 172.867 225.858 172.591C225.153 172.315 224.389 172.217 223.636 172.305C222.961 172.314 222.291 172.416 221.645 172.609C220.864 172.846 220.151 173.262 219.562 173.824C218.856 174.512 218.303 175.34 217.938 176.253C217.451 177.511 217.222 178.854 217.264 180.201V193.198H213.251V169.39H217.081V172.761C217.285 172.457 217.591 172.072 218 171.607C218.441 171.1 218.945 170.651 219.501 170.271C220.145 169.819 220.845 169.452 221.584 169.177C222.467 168.859 223.401 168.705 224.341 168.722C225.31 168.724 226.277 168.836 227.22 169.056C228.207 169.278 229.135 169.702 229.947 170.301C230.819 170.964 231.513 171.83 231.969 172.822C232.54 174.133 232.812 175.554 232.765 176.982L232.826 193.228Z" fill="white"/>
<path d="M245.508 172.73V193.228H241.465V172.73H238.156V169.39H241.465V165.29C241.4 164.548 241.514 163.8 241.796 163.109C242.078 162.417 242.521 161.802 243.088 161.312C244.449 160.401 246.076 159.963 247.714 160.067H248.602H249.552V163.742H248.725H247.898C247.556 163.705 247.209 163.746 246.886 163.862C246.562 163.978 246.269 164.165 246.029 164.41C245.624 165.042 245.441 165.789 245.508 166.536V169.572H249.613V172.73H245.508Z" fill="white"/>
<path d="M253.504 181.294C253.506 179.741 253.733 178.197 254.178 176.709C254.601 175.247 255.297 173.877 256.23 172.67C257.233 171.395 258.516 170.364 259.981 169.655C261.446 168.946 263.055 168.577 264.685 168.577C266.316 168.577 267.925 168.946 269.39 169.655C270.855 170.364 272.137 171.395 273.14 172.67C274.073 173.877 274.769 175.247 275.193 176.709C276.071 179.683 276.071 182.844 275.193 185.819C274.769 187.28 274.073 188.651 273.14 189.858C272.137 191.132 270.855 192.163 269.39 192.872C267.925 193.582 266.316 193.95 264.685 193.95C263.055 193.95 261.446 193.582 259.981 192.872C258.516 192.163 257.233 191.132 256.23 189.858C255.297 188.651 254.601 187.28 254.178 185.819C253.738 184.35 253.511 182.826 253.504 181.294V181.294ZM257.701 181.294C257.713 182.221 257.806 183.146 257.976 184.057C258.155 185.119 258.507 186.145 259.018 187.094C259.533 188.05 260.267 188.872 261.162 189.493C262.229 190.134 263.453 190.472 264.701 190.472C265.948 190.472 267.172 190.134 268.239 189.493C269.134 188.872 269.868 188.05 270.383 187.094C270.894 186.145 271.246 185.119 271.425 184.057C271.596 183.146 271.688 182.221 271.7 181.294C271.688 180.367 271.595 179.442 271.425 178.531C271.245 177.469 270.893 176.444 270.383 175.494C269.867 174.539 269.133 173.717 268.239 173.095C267.172 172.454 265.948 172.116 264.701 172.116C263.453 172.116 262.229 172.454 261.162 173.095C260.268 173.717 259.534 174.539 259.018 175.494C258.508 176.444 258.156 177.469 257.976 178.531C257.796 179.441 257.693 180.366 257.67 181.294H257.701Z" fill="white"/>
<path d="M286.772 193.228H282.729V169.39H286.558V173.338C287.294 172.07 288.272 170.956 289.437 170.058C290.556 169.196 291.942 168.745 293.358 168.783H293.971H294.431V173.095H292.899C292.026 173.075 291.159 173.241 290.356 173.581C289.621 173.906 288.963 174.382 288.426 174.978C287.893 175.573 287.477 176.264 287.201 177.012C286.913 177.79 286.767 178.613 286.772 179.442V193.228Z" fill="white"/>
<path d="M299.73 169.39H303.529V172.761L304.417 171.607C304.837 171.102 305.321 170.653 305.857 170.271C306.497 169.813 307.198 169.445 307.94 169.177C308.883 168.845 309.881 168.691 310.881 168.722C311.798 168.697 312.712 168.841 313.577 169.147C314.238 169.397 314.858 169.745 315.415 170.18C315.864 170.536 316.248 170.968 316.548 171.455L317.253 172.609C317.743 172.062 318.233 171.546 318.723 171.06C319.192 170.585 319.717 170.167 320.285 169.815C320.879 169.467 321.518 169.201 322.185 169.026C322.974 168.818 323.788 168.716 324.605 168.722C325.361 168.744 326.112 168.856 326.841 169.056C327.72 169.285 328.543 169.688 329.261 170.24C330.092 170.892 330.762 171.723 331.222 172.67C331.799 173.947 332.072 175.34 332.018 176.739V193.228H328.036V177.832C328.094 176.445 327.765 175.068 327.086 173.854C326.688 173.313 326.152 172.888 325.533 172.621C324.913 172.354 324.234 172.256 323.563 172.336C322.753 172.322 321.953 172.51 321.235 172.882C320.553 173.236 319.949 173.721 319.458 174.31C318.965 174.918 318.582 175.606 318.325 176.344C318.059 177.095 317.925 177.886 317.927 178.682V193.228H313.944V176.739C313.944 176.229 313.892 175.72 313.791 175.221C313.694 174.711 313.496 174.226 313.209 173.793C312.906 173.365 312.508 173.012 312.045 172.761C311.477 172.475 310.844 172.339 310.207 172.366C309.542 172.377 308.883 172.479 308.246 172.67C307.466 172.907 306.752 173.323 306.163 173.884C305.457 174.573 304.904 175.401 304.54 176.314C304.053 177.572 303.824 178.914 303.866 180.261V193.259H299.73V169.39Z" fill="white"/>
<path d="M339.83 176.648C339.817 175.393 340.078 174.15 340.596 173.004C341.058 172.033 341.752 171.189 342.617 170.544C343.533 169.878 344.575 169.403 345.681 169.147C346.997 168.85 348.344 168.707 349.694 168.722H351.011C351.64 168.78 352.265 168.882 352.88 169.026C353.572 169.188 354.249 169.411 354.901 169.694C355.577 169.983 356.199 170.383 356.739 170.878C357.36 171.438 357.85 172.124 358.178 172.889C358.506 173.654 358.663 174.481 358.639 175.312V189.007C358.639 189.949 359.068 190.404 359.987 190.404H360.599H361.304V193.441L360.293 193.744C359.905 193.855 359.502 193.907 359.098 193.896C358.369 193.912 357.643 193.799 356.954 193.562C356.473 193.397 356.041 193.115 355.698 192.742C355.412 192.406 355.203 192.013 355.085 191.588C354.958 191.152 354.876 190.705 354.84 190.252C354.442 190.677 353.982 191.133 353.492 191.558C352.942 192.043 352.335 192.461 351.685 192.803C350.917 193.208 350.105 193.523 349.265 193.744C348.264 193.996 347.234 194.119 346.201 194.109C345.159 194.13 344.122 193.965 343.138 193.623C342.257 193.317 341.445 192.842 340.749 192.226C340.078 191.627 339.546 190.891 339.186 190.07C338.809 189.187 338.622 188.235 338.635 187.276C338.653 186.644 338.725 186.014 338.849 185.394C339.007 184.569 339.33 183.784 339.799 183.086C340.366 182.258 341.108 181.564 341.974 181.051C343.195 180.356 344.554 179.931 345.956 179.806L352.635 178.986L353.37 178.834C353.631 178.756 353.872 178.621 354.074 178.439C354.313 178.212 354.492 177.931 354.595 177.62C354.733 177.157 354.795 176.675 354.779 176.192C354.779 173.621 352.89 172.336 349.112 172.336C348.161 172.298 347.212 172.453 346.324 172.791C345.709 173.046 345.163 173.441 344.731 173.945C344.364 174.392 344.093 174.909 343.935 175.463C343.796 175.951 343.693 176.449 343.628 176.951L339.83 176.648ZM354.626 181.081L354.044 181.446C353.69 181.599 353.32 181.711 352.941 181.78L351.042 182.144L347.978 182.569L346.355 182.873C345.769 183.002 345.202 183.206 344.67 183.48C344.15 183.751 343.7 184.135 343.353 184.604C342.981 185.149 342.798 185.799 342.832 186.456C342.769 187.564 343.142 188.653 343.873 189.493C344.323 189.894 344.853 190.198 345.427 190.386C346.002 190.575 346.61 190.643 347.212 190.586C348.148 190.592 349.079 190.448 349.969 190.161C350.814 189.893 351.61 189.493 352.328 188.977C352.998 188.502 353.57 187.904 354.013 187.216C354.437 186.553 354.66 185.783 354.656 184.999L354.626 181.081Z" fill="white"/>
<path d="M372.148 172.731V188.279C372.128 188.649 372.213 189.017 372.393 189.341C372.547 189.591 372.771 189.792 373.037 189.918C373.286 190.04 373.556 190.112 373.833 190.131H376.008V193.168L374.109 193.38H372.975C372.14 193.405 371.309 193.271 370.525 192.985C369.948 192.768 369.44 192.401 369.054 191.923C368.692 191.446 368.441 190.897 368.319 190.313C368.174 189.645 368.102 188.962 368.105 188.279V172.731H364.735V169.39H367.982V162.74H372.148V169.39H376.008V172.731H372.148Z" fill="white"/>
<path d="M382.165 165.078V160.523H386.209V165.078H382.165ZM386.209 193.228H382.165V169.39H386.209V193.228Z" fill="white"/>
<path d="M393.01 181.294C393.012 179.742 393.239 178.197 393.683 176.709C394.107 175.247 394.803 173.877 395.736 172.67C396.663 171.468 397.844 170.484 399.198 169.785C401.424 168.626 403.992 168.28 406.45 168.807C408.908 169.334 411.102 170.702 412.646 172.67C413.579 173.877 414.275 175.247 414.698 176.709C415.575 179.683 415.575 182.844 414.698 185.819C414.275 187.281 413.579 188.651 412.646 189.858C411.643 191.132 410.36 192.163 408.895 192.872C407.43 193.582 405.821 193.95 404.191 193.95C402.56 193.95 400.951 193.582 399.486 192.872C398.021 192.163 396.739 191.132 395.736 189.858C394.803 188.651 394.107 187.281 393.683 185.819C393.245 184.35 393.018 182.826 393.01 181.294V181.294ZM397.206 181.294C397.22 182.221 397.312 183.146 397.482 184.058C397.661 185.119 398.013 186.144 398.524 187.094C399.04 188.049 399.774 188.87 400.668 189.493C401.734 190.137 402.958 190.478 404.206 190.478C405.454 190.478 406.678 190.137 407.744 189.493C408.641 188.873 409.376 188.051 409.889 187.094C410.4 186.145 410.752 185.119 410.93 184.058C411.102 183.146 411.194 182.221 411.206 181.294C411.194 180.367 411.102 179.442 410.93 178.531C410.751 177.469 410.4 176.444 409.889 175.494C409.375 174.538 408.64 173.716 407.744 173.095C406.677 172.454 405.454 172.116 404.206 172.116C402.959 172.116 401.735 172.454 400.668 173.095C399.774 173.718 399.04 174.54 398.524 175.494C398.014 176.444 397.662 177.469 397.482 178.531C397.302 179.442 397.199 180.366 397.176 181.294H397.206Z" fill="white"/>
<path d="M441.564 193.228H437.521V178.561C437.634 176.928 437.25 175.298 436.418 173.884C435.928 173.311 435.302 172.866 434.596 172.591C433.891 172.315 433.127 172.217 432.374 172.305C431.699 172.314 431.029 172.416 430.383 172.609C429.613 172.85 428.91 173.266 428.33 173.824C427.624 174.512 427.071 175.34 426.707 176.253C426.22 177.511 425.991 178.853 426.033 180.201V193.198H421.989V169.39H425.788V172.761C426.002 172.457 426.309 172.062 426.707 171.607C427.148 171.1 427.653 170.651 428.208 170.271C428.852 169.819 429.552 169.452 430.291 169.177C431.174 168.86 432.109 168.705 433.048 168.722C434.018 168.724 434.984 168.836 435.928 169.056C436.914 169.278 437.843 169.702 438.654 170.301C439.526 170.964 440.22 171.83 440.676 172.821C441.237 174.135 441.499 175.556 441.442 176.982L441.564 193.228Z" fill="white"/>
<path d="M485.094 170.058C485.052 168.993 484.759 167.953 484.237 167.021C483.762 166.204 483.101 165.507 482.307 164.987C481.514 164.467 480.631 164.097 479.703 163.894C478.778 163.69 477.833 163.588 476.885 163.59C476.094 163.6 475.305 163.671 474.526 163.802C473.668 163.936 472.839 164.213 472.075 164.622C471.302 165.038 470.64 165.632 470.145 166.353C469.577 167.262 469.309 168.323 469.379 169.39C469.355 169.995 469.47 170.597 469.716 171.151C469.93 171.601 470.232 172.003 470.605 172.336C470.977 172.658 471.401 172.915 471.861 173.095C472.319 173.279 472.79 173.431 473.27 173.55L482.705 175.706C483.765 175.925 484.794 176.272 485.768 176.739C487.58 177.616 488.984 179.148 489.689 181.021C490.094 182.109 490.291 183.262 490.272 184.422C490.337 186.114 489.911 187.79 489.046 189.25C488.284 190.49 487.234 191.531 485.983 192.287C484.684 193.045 483.265 193.579 481.786 193.866C479.051 194.412 476.238 194.463 473.484 194.018C472.531 193.86 471.597 193.606 470.697 193.259C470.014 192.992 469.366 192.645 468.767 192.226C468.309 191.906 467.869 191.561 467.449 191.194C466.202 190.142 465.261 188.779 464.723 187.246C464.305 185.836 464.098 184.373 464.11 182.903H468.307C468.255 184.188 468.54 185.465 469.134 186.608C469.657 187.542 470.391 188.342 471.279 188.947C472.207 189.558 473.248 189.981 474.342 190.192C475.347 190.421 476.374 190.544 477.405 190.556C478.308 190.544 479.208 190.473 480.101 190.343C481.074 190.218 482.024 189.952 482.919 189.554C483.774 189.172 484.528 188.6 485.125 187.884C485.755 187.067 486.07 186.055 486.013 185.029C486.033 184.296 485.919 183.566 485.676 182.873C485.444 182.275 485.052 181.75 484.543 181.355C483.886 180.863 483.151 180.483 482.368 180.231C481.469 179.907 480.346 179.583 478.998 179.259L472.228 177.711C471.541 177.553 470.866 177.35 470.206 177.103C469.375 176.794 468.599 176.353 467.909 175.798C467.138 175.175 466.493 174.412 466.01 173.55C465.44 172.465 465.166 171.251 465.213 170.028C465.213 168.756 465.431 167.493 465.857 166.293C466.286 165.086 466.976 163.988 467.878 163.074C468.887 162.074 470.098 161.297 471.432 160.796C472.97 160.117 474.621 159.726 476.303 159.642C478.633 159.552 480.958 159.934 483.134 160.766C484.612 161.362 485.924 162.299 486.963 163.499C487.857 164.506 488.488 165.716 488.801 167.021C489.035 168.021 489.199 169.036 489.291 170.058H485.094Z" fill="white"/>
<path d="M512.573 177.407C512.426 175.995 511.812 174.672 510.827 173.641C509.758 172.706 508.36 172.226 506.937 172.305C505.861 172.28 504.8 172.553 503.873 173.095C503.027 173.617 502.323 174.337 501.821 175.19C501.274 176.129 500.9 177.158 500.718 178.227C500.511 179.277 500.408 180.345 500.412 181.415C500.417 182.432 500.499 183.447 500.657 184.452C500.798 185.51 501.119 186.537 501.606 187.489C502.071 188.374 502.757 189.126 503.597 189.675C504.614 190.275 505.785 190.571 506.967 190.526C508.328 190.53 509.636 190.007 510.613 189.068C511.75 187.934 512.482 186.462 512.696 184.877H516.586C516.479 185.915 516.242 186.935 515.882 187.914C515.503 189.016 514.933 190.044 514.197 190.951C513.355 191.914 512.309 192.682 511.133 193.198C509.741 193.826 508.221 194.127 506.691 194.079C505.134 194.108 503.588 193.808 502.158 193.198C500.861 192.627 499.71 191.776 498.788 190.708C497.839 189.592 497.121 188.302 496.674 186.912C496.171 185.362 495.923 183.742 495.939 182.114C495.92 180.36 496.147 178.613 496.613 176.921C497.028 175.395 497.735 173.962 498.696 172.7C499.647 171.489 500.876 170.521 502.28 169.876C503.907 169.155 505.676 168.803 507.457 168.843C508.836 168.795 510.207 169.054 511.47 169.603C512.515 170.081 513.444 170.774 514.197 171.637C514.903 172.459 515.444 173.407 515.79 174.431C516.134 175.414 516.36 176.433 516.464 177.468L512.573 177.407Z" fill="white"/>
<path d="M542.441 193.228H538.397V177.65C538.403 176.906 538.331 176.163 538.183 175.433C538.068 174.829 537.817 174.258 537.448 173.763C537.061 173.286 536.553 172.919 535.977 172.7C535.225 172.416 534.423 172.282 533.618 172.305C532.796 172.309 531.979 172.443 531.198 172.7C530.379 172.972 529.634 173.43 529.023 174.036C528.336 174.734 527.813 175.574 527.492 176.496C527.074 177.707 526.877 178.982 526.91 180.262V193.259H522.866V160.523H526.91V172.67C527.175 172.305 527.522 171.89 527.951 171.425C528.391 170.946 528.885 170.518 529.422 170.149C530.028 169.739 530.687 169.412 531.382 169.178C532.211 168.903 533.081 168.769 533.955 168.783C534.925 168.785 535.891 168.897 536.835 169.117C537.821 169.339 538.75 169.763 539.561 170.362C540.434 171.024 541.129 171.89 541.583 172.882C542.155 174.194 542.427 175.615 542.38 177.043L542.441 193.228Z" fill="white"/>
<path d="M549.058 181.294C549.06 179.741 549.287 178.197 549.732 176.709C550.155 175.247 550.851 173.877 551.784 172.67C552.787 171.395 554.07 170.364 555.535 169.655C557 168.946 558.609 168.577 560.239 168.577C561.87 168.577 563.479 168.946 564.944 169.655C566.409 170.364 567.691 171.395 568.694 172.67C569.627 173.877 570.323 175.247 570.747 176.709C571.623 179.683 571.623 182.844 570.747 185.819C570.323 187.28 569.627 188.651 568.694 189.858C567.691 191.132 566.409 192.163 564.944 192.872C563.479 193.582 561.87 193.95 560.239 193.95C558.609 193.95 557 193.582 555.535 192.872C554.07 192.163 552.787 191.132 551.784 189.858C550.851 188.651 550.155 187.28 549.732 185.819C549.293 184.35 549.066 182.826 549.058 181.294V181.294ZM553.255 181.294C553.267 182.221 553.359 183.146 553.53 184.057C553.709 185.119 554.061 186.145 554.572 187.094C555.087 188.05 555.821 188.872 556.716 189.493C557.782 190.137 559.006 190.477 560.254 190.477C561.503 190.477 562.727 190.137 563.793 189.493C564.688 188.872 565.422 188.05 565.937 187.094C566.449 186.145 566.801 185.119 566.979 184.057C567.15 183.146 567.242 182.221 567.254 181.294C567.242 180.367 567.15 179.442 566.979 178.531C566.8 177.469 566.448 176.443 565.937 175.494C565.421 174.539 564.687 173.717 563.793 173.095C562.726 172.454 561.502 172.116 560.254 172.116C559.007 172.116 557.783 172.454 556.716 173.095C555.821 173.716 555.087 174.538 554.572 175.494C554.061 176.443 553.709 177.469 553.53 178.531C553.349 179.441 553.246 180.366 553.224 181.294H553.255Z" fill="white"/>
<path d="M576.75 181.294C576.753 179.741 576.98 178.197 577.424 176.709C577.848 175.247 578.544 173.877 579.477 172.67C580.48 171.395 581.762 170.364 583.227 169.655C584.692 168.946 586.301 168.577 587.932 168.577C589.562 168.577 591.171 168.946 592.636 169.655C594.101 170.364 595.384 171.395 596.387 172.67C597.32 173.877 598.016 175.247 598.439 176.709C599.316 179.683 599.316 182.844 598.439 185.819C598.016 187.28 597.32 188.651 596.387 189.858C595.384 191.132 594.101 192.163 592.636 192.872C591.171 193.582 589.562 193.95 587.932 193.95C586.301 193.95 584.692 193.582 583.227 192.872C581.762 192.163 580.48 191.132 579.477 189.858C578.544 188.651 577.848 187.28 577.424 185.819C576.986 184.35 576.759 182.826 576.75 181.294V181.294ZM580.947 181.294C580.959 182.221 581.051 183.146 581.223 184.057C581.401 185.119 581.753 186.145 582.265 187.094C582.779 188.05 583.514 188.872 584.409 189.493C585.475 190.137 586.699 190.477 587.947 190.477C589.195 190.477 590.419 190.137 591.485 189.493C592.38 188.872 593.115 188.05 593.63 187.094C594.141 186.145 594.493 185.119 594.671 184.057C594.843 183.146 594.935 182.221 594.947 181.294C594.935 180.367 594.842 179.442 594.671 178.531C594.493 177.469 594.141 176.443 593.63 175.494C593.114 174.539 592.38 173.717 591.485 173.095C590.418 172.454 589.195 172.116 587.947 172.116C586.7 172.116 585.476 172.454 584.409 173.095C583.514 173.716 582.779 174.538 582.265 175.494C581.753 176.443 581.401 177.469 581.223 178.531C581.052 179.442 580.959 180.367 580.947 181.294V181.294Z" fill="white"/>
<path d="M609.927 193.228H605.883V160.523H609.927V193.228Z" fill="white"/>
<path fill-rule="evenodd" clip-rule="evenodd" d="M125.945 173.641C126.313 171.971 133.543 171.88 133.083 173.975C131.326 180.588 128.925 187.015 125.915 193.167C123.464 198.816 122.851 203.583 124.169 206.377C124.865 208.148 126.029 209.7 127.538 210.872C130.519 212.75 134.033 213.623 137.556 213.362C140.492 213.508 143.427 213.054 146.179 212.028C148.93 211.003 151.44 209.427 153.551 207.399C155.663 205.372 157.331 202.935 158.453 200.241C159.575 197.548 160.125 194.654 160.071 191.74C160.071 174.704 148.431 169.633 143.008 166.505C141.385 164.744 143.59 160.432 145.122 160.432C149.013 160.432 167.301 169.542 167.301 192.165C167.093 199.789 163.949 207.045 158.514 212.444C153.08 217.842 145.767 220.974 138.076 221.196C125.026 221.196 118.655 214.789 116.633 208.017C114.917 202.521 117.215 195.111 120.248 188.612C121.779 185.363 122.055 184.513 123.096 182.114C124.304 179.37 125.328 176.55 126.16 173.672" fill="white"/>
<path fill-rule="evenodd" clip-rule="evenodd" d="M137.647 166.171C135.809 167.325 126.864 167.143 124.291 166.323C122.392 165.746 123.28 158.397 124.567 157.213C126.19 155.543 137.065 155.482 138.566 157.759C139.424 159.095 139.302 165.017 137.678 166.05" fill="white"/>
<path fill-rule="evenodd" clip-rule="evenodd" d="M94.1782 198.755C94.4233 237.868 147.328 240.783 160.316 219.223C161.113 217.522 167.822 217.188 168.496 219.223C145.336 256.301 87.5001 240.48 87.5001 198.694C87.4694 179.35 98.7426 163.985 116.48 160.28C118.318 159.855 119.727 165.382 118.103 166.141C104.471 169.36 94.0863 184.361 94.1782 198.755" fill="white"/>
<path d="M199.773 205.375H610.968" stroke="white" stroke-width="0.5"/>
<path d="M184.976 158.458V243" stroke="white" stroke-width="0.5"/>
<path d="M548.874 225.537L550.589 227.237V233.827C550.207 234.165 549.762 234.424 549.278 234.591C548.794 234.758 548.282 234.828 547.771 234.799C543.942 234.799 541.644 230.335 541.644 226.235C541.644 222.135 543.911 217.671 547.771 217.671C548.196 217.651 548.62 217.724 549.012 217.887C549.405 218.05 549.755 218.298 550.038 218.613L552.795 221.316V217.307C551.431 216.626 549.931 216.256 548.404 216.225C546.877 216.193 545.363 216.501 543.972 217.125C542.581 217.749 541.348 218.675 540.364 219.833C539.381 220.991 538.671 222.352 538.288 223.817C537.904 225.283 537.856 226.815 538.148 228.301C538.439 229.787 539.063 231.189 539.972 232.405C540.881 233.621 542.054 234.62 543.403 235.329C544.753 236.037 546.245 236.437 547.771 236.499C549.833 236.707 551.904 236.191 553.622 235.042V227.268L555.338 225.567L548.874 225.537ZM505.343 216.426L507.028 218.127V234.495L505.343 236.195H511.807L510.092 234.495V218.157L511.807 216.457L505.343 216.426ZM488.219 226.417H495.755V234.495L494.04 236.195H500.503L498.819 234.495V218.157L500.503 216.457H494.04L495.755 218.157V224.717H488.219V218.036L489.935 216.335H483.44L485.156 218.036V234.404L483.44 236.104H489.935L488.219 234.404V226.417ZM479.029 230.213C479.074 229.48 478.919 228.749 478.579 228.097C478.24 227.445 477.728 226.896 477.099 226.508L472.29 223.472C471.714 223.182 471.223 222.751 470.863 222.219C470.504 221.687 470.288 221.073 470.237 220.435C470.306 219.678 470.659 218.974 471.226 218.462C471.794 217.951 472.534 217.668 473.301 217.671C473.761 217.631 474.223 217.738 474.618 217.975L476.64 220.465L478.631 217.095L474.679 216.366C474.16 216.303 473.636 216.303 473.117 216.366C472.391 216.333 471.666 216.446 470.985 216.698C470.305 216.95 469.683 217.336 469.156 217.832C468.63 218.328 468.21 218.925 467.922 219.586C467.634 220.248 467.484 220.96 467.48 221.68C467.501 222.596 467.757 223.492 468.223 224.284C468.689 225.075 469.351 225.736 470.145 226.205L474.955 229.241C475.385 229.522 475.737 229.906 475.978 230.357C476.219 230.808 476.341 231.312 476.333 231.823C476.35 232.281 476.273 232.737 476.105 233.164C475.938 233.591 475.685 233.98 475.361 234.307C475.037 234.634 474.649 234.892 474.221 235.065C473.793 235.238 473.334 235.323 472.872 235.315C472.304 235.335 471.742 235.198 471.248 234.92L469.043 232.157L467.113 235.649L471.248 236.378C471.747 236.435 472.251 236.435 472.749 236.378C473.598 236.42 474.446 236.288 475.24 235.988C476.033 235.688 476.756 235.229 477.361 234.637C477.966 234.046 478.44 233.337 478.754 232.554C479.067 231.772 479.213 230.933 479.182 230.092L479.029 230.213ZM454.675 220.982L457.341 228.907H451.796L454.675 220.982ZM450.05 234.434L451.367 230.517H457.923L459.24 234.434L457.555 236.104H464.325L462.548 234.373L456.422 216.305H454.553L448.181 234.373L446.435 236.104H451.796L450.05 234.434ZM428.606 236.104L432.742 223.259L436.755 236.104H438.623L444.413 218.036L446.129 216.275H440.768L442.453 217.945L438.348 231.094L434.427 217.945L436.111 216.275H429.341L431.057 218.036L431.731 220.222L428.3 231.124L424.226 218.127L425.91 216.457H419.14L420.856 218.218L426.523 236.287L428.606 236.104ZM400.147 224.231C401.005 218.886 401.618 217.702 402.414 217.702C403.203 217.761 403.939 218.12 404.467 218.704C404.603 218.832 404.784 218.904 404.972 218.904C405.16 218.904 405.341 218.832 405.478 218.704C405.676 218.549 405.84 218.357 405.962 218.138C406.083 217.918 406.158 217.677 406.182 217.429C406.182 216.76 405.416 216.214 404.344 216.214C403.437 216.273 402.552 216.513 401.741 216.92C400.931 217.327 400.211 217.893 399.627 218.583C398.347 220.22 397.542 222.173 397.299 224.231H395.583L394.756 225.081V225.354H396.962C396.594 227.784 396.288 229.94 395.797 233.402C395.687 235.87 395.127 238.298 394.143 240.568C394.055 240.669 393.947 240.75 393.826 240.808C393.705 240.865 393.573 240.898 393.439 240.902C392.977 240.808 392.533 240.644 392.121 240.417C391.977 240.356 391.817 240.341 391.664 240.374C391.51 240.406 391.371 240.485 391.264 240.599C390.948 240.928 390.763 241.359 390.743 241.813C390.743 242.451 391.447 242.694 391.938 242.694C393.211 242.508 394.369 241.858 395.185 240.872C397.2 238.113 398.446 234.877 398.8 231.489C399.198 229.515 399.474 227.784 399.872 225.415L402.721 225.142L403.364 224.292L400.147 224.231ZM385.168 224.747C386.301 224.747 387.036 225.749 387.036 227.784C387.169 229.108 386.995 230.444 386.528 231.691C386.06 232.938 385.312 234.063 384.34 234.981C384.117 235.013 383.89 235.013 383.667 234.981C382.38 234.981 381.645 233.614 381.645 231.458C381.645 227.237 383.483 225.142 384.34 224.777C384.612 224.667 384.905 224.615 385.198 224.626L385.168 224.747ZM386.148 223.411C384.904 223.454 383.692 223.809 382.625 224.443C381.364 225.218 380.329 226.307 379.625 227.602C378.921 228.897 378.572 230.352 378.612 231.823C378.541 232.373 378.591 232.933 378.759 233.463C378.926 233.993 379.207 234.481 379.583 234.893C379.958 235.305 380.418 235.632 380.933 235.852C381.447 236.071 382.004 236.178 382.564 236.165C384.244 236.053 385.838 235.391 387.098 234.282C388.053 233.406 388.817 232.344 389.344 231.164C389.871 229.984 390.149 228.71 390.161 227.419C390.206 226.89 390.135 226.356 389.954 225.856C389.772 225.355 389.484 224.9 389.11 224.519C388.735 224.139 388.282 223.843 387.781 223.652C387.281 223.461 386.745 223.379 386.209 223.411H386.148ZM351.899 217.884L356.831 227.055V234.525L355.116 236.226H361.58L359.895 234.525V227.085L364.796 218.157L366.512 216.457H361.12L362.805 218.127L358.976 225.203L355.055 218.127L356.74 216.457H349.97L351.899 217.884ZM341.515 234.525V218.066H344.854L347.121 220.344V216.457H332.692V220.344L334.959 218.066H338.451V234.556L336.736 236.256H343.199L341.515 234.525ZM321.817 216.305L323.502 218.006V234.373L321.817 236.074H328.281L326.565 234.373V218.157L328.281 216.457L321.817 216.305ZM317.008 230.244C317.056 229.51 316.902 228.778 316.562 228.125C316.222 227.472 315.709 226.924 315.078 226.539L310.268 223.502C309.692 223.213 309.201 222.781 308.842 222.25C308.482 221.718 308.267 221.103 308.216 220.465C308.285 219.708 308.638 219.004 309.205 218.493C309.772 217.981 310.512 217.699 311.279 217.702C311.74 217.662 312.201 217.768 312.596 218.006L314.618 220.496L316.609 217.125L312.658 216.396C312.139 216.333 311.614 216.333 311.095 216.396C310.37 216.359 309.644 216.468 308.962 216.716C308.279 216.965 307.655 217.347 307.126 217.84C306.596 218.334 306.173 218.929 305.881 219.588C305.59 220.248 305.435 220.96 305.428 221.68C305.449 222.596 305.704 223.492 306.171 224.284C306.637 225.075 307.298 225.736 308.093 226.205L312.903 229.241C313.333 229.522 313.685 229.906 313.926 230.357C314.167 230.808 314.289 231.312 314.281 231.823C314.273 232.711 313.911 233.561 313.275 234.186C312.638 234.812 311.777 235.163 310.881 235.163C310.313 235.183 309.751 235.046 309.257 234.768L307.052 232.005L305.061 235.618L309.196 236.347C309.695 236.405 310.198 236.405 310.697 236.347C311.52 236.372 312.339 236.232 313.105 235.936C313.872 235.639 314.571 235.193 315.16 234.624C315.749 234.054 316.216 233.373 316.533 232.62C316.851 231.867 317.012 231.059 317.008 230.244V230.244ZM290.938 218.097H292.93C293.409 218.124 293.877 218.244 294.309 218.451C294.741 218.659 295.128 218.948 295.446 219.304C295.765 219.659 296.01 220.073 296.167 220.523C296.324 220.972 296.39 221.448 296.361 221.923C296.378 222.853 296.029 223.753 295.389 224.433C294.749 225.113 293.867 225.52 292.93 225.567H290.938V218.097ZM300.527 234.586L296.177 226.569C297.216 226.267 298.135 225.652 298.805 224.808C299.474 223.964 299.862 222.935 299.914 221.862C299.714 220.241 298.88 218.763 297.59 217.746C296.301 216.729 294.66 216.255 293.021 216.426H286.374L288.089 218.127V234.495L286.374 236.256H292.868L291.153 234.556V227.146H293.389L298.168 236.256H302.457L300.527 234.586ZM281.656 236.287V232.369L279.39 234.647H274.121V226.448H278.042L279.757 228.148V223.138L278.042 224.838H274.121V218.066H279.604L281.871 220.344V216.457H269.219L270.935 218.157V234.525L269.219 236.226L281.656 236.287ZM256.169 216.487H249.614L251.329 218.248L256.996 236.317H258.804L264.593 218.248L266.37 216.487H260.887L262.572 218.157L258.467 231.306L254.546 218.157L256.169 216.487ZM239.382 216.487L241.067 218.188V234.556L239.382 236.256H245.846L244.13 234.556V218.157L245.846 216.457L239.382 216.487ZM221.431 234.707V220.405L231.662 236.256H232.979V218.036L234.695 216.335H229.426L231.141 218.036V229.332L222.84 216.305H217.846L219.562 218.006V234.373L217.846 236.074H223.238L221.431 234.707ZM199.589 231.124C199.78 232.727 200.558 234.204 201.774 235.276C202.991 236.348 204.562 236.94 206.19 236.94C207.818 236.94 209.39 236.348 210.606 235.276C211.823 234.204 212.601 232.727 212.792 231.124V218.157L214.507 216.457H209.208L210.923 218.157V230.942C210.923 232.021 210.491 233.056 209.721 233.819C208.951 234.582 207.907 235.011 206.818 235.011C205.73 235.011 204.686 234.582 203.916 233.819C203.146 233.056 202.713 232.021 202.713 230.942V218.157L204.429 216.457H197.935L199.65 218.157L199.589 231.124Z" fill="white"/>
<path d="M520.997 234.528V220.407L531.229 236.258H532.546V218.16L534.262 216.429H528.931L530.647 218.16V229.456L522.345 216.429H517.352L519.067 218.16V234.528L517.352 236.228H522.713L520.997 234.528Z" fill="white"/>
<path d="M599.236 234.528V220.407L609.467 236.258H610.785V218.16L612.5 216.429H607.17L608.885 218.16V229.456L600.584 216.429H595.59L597.306 218.16V234.528L595.59 236.228H600.982L599.236 234.528Z" fill="white"/>
<path d="M566.488 234.528V218.038H569.827L572.094 220.316V216.429H557.758V220.316L560.025 218.038H563.425V234.528L561.71 236.228H568.173L566.488 234.528Z" fill="white"/>
<path d="M578.711 226.359C578.711 222.441 579.722 217.674 583.551 217.674C587.381 217.674 588.361 222.441 588.361 226.359C588.361 230.276 587.35 235.044 583.551 235.044C579.753 235.044 578.711 230.276 578.711 226.359ZM574.943 226.359C574.943 231.521 578.252 236.684 583.551 236.684C588.851 236.684 592.129 231.521 592.129 226.359C592.129 221.196 588.82 216.034 583.551 216.034C578.282 216.034 574.943 221.196 574.943 226.359Z" fill="white"/>
</g>
<defs>
<filter id="filter0_d" x="83.5" y="156" width="533" height="95" filterUnits="userSpaceOnUse" color-interpolation-filters="sRGB">
<feFlood flood-opacity="0" result="BackgroundImageFix"/>
<feColorMatrix in="SourceAlpha" type="matrix" values="0 0 0 0 0 0 0 0 0 0 0 0 0 0 0 0 0 0 127 0"/>
<feOffset dy="4"/>
<feGaussianBlur stdDeviation="2"/>
<feColorMatrix type="matrix" values="0 0 0 0 0 0 0 0 0 0 0 0 0 0 0 0 0 0 0.25 0"/>
<feBlend mode="normal" in2="BackgroundImageFix" result="effect1_dropShadow"/>
<feBlend mode="normal" in="SourceGraphic" in2="effect1_dropShadow" result="shape"/>
</filter>
</defs>
</svg>
