<svg width="708" height="408" viewBox="0 0 708 408" fill="none" xmlns="http://www.w3.org/2000/svg">
<g filter="url(#filter0_d)">
<rect x="4" width="700" height="400" fill="#035BDD"/>
</g>
<g filter="url(#filter1_d)">
<g clip-path="url(#clip0)">
<path d="M357.299 106.823C357.093 107.028 356.887 107.234 356.682 107.44C356.887 107.234 357.093 107.028 357.299 106.823Z" fill="white"/>
<path d="M373.14 219.977L359.562 270.383L335.902 182.534L349.481 132.128L373.14 219.977Z" fill="white"/>
<path d="M275.21 220.183L256.694 289.516C256.282 291.162 254.636 292.397 252.785 292.397H213.901C211.226 292.397 209.374 289.928 210.197 287.459L251.756 132.128L275.21 220.183Z" fill="white"/>
<path d="M403.384 289.311C403.384 289.516 403.589 289.928 403.589 290.134C403.589 289.928 403.384 289.722 403.384 289.516V289.311Z" fill="white"/>
<path d="M449.879 290.134C449.674 290.34 449.674 290.546 449.674 290.546C449.674 290.546 449.674 290.34 449.879 290.134Z" fill="white"/>
<path d="M450.085 289.723C450.085 289.928 449.879 290.134 449.879 290.134C449.879 290.134 449.879 289.928 450.085 289.723C450.085 289.723 449.879 289.723 450.085 289.723Z" fill="white"/>
<path d="M348.452 292.397H309.568C307.716 292.397 306.276 291.163 305.659 289.517L281.176 198.17L257.928 111.144C257.722 110.526 257.722 109.909 257.928 109.498C257.928 109.292 257.928 109.086 258.134 108.88C258.134 108.675 258.134 108.675 258.34 108.469C258.545 108.058 258.751 107.646 258.957 107.44C259.163 107.235 259.368 107.029 259.368 107.029C259.574 106.823 259.78 106.823 259.985 106.617C260.397 106.412 261.014 106.206 261.631 106.206H300.927C301.133 106.206 301.338 106.206 301.544 106.206C301.956 106.206 302.161 106.412 302.573 106.617C302.984 106.823 303.19 107.029 303.602 107.44C303.807 107.646 304.013 107.852 304.013 108.058C304.013 108.263 304.219 108.469 304.219 108.469C304.425 108.675 304.425 108.88 304.425 109.086V109.498L329.936 204.548L352.155 287.665C352.978 290.134 351.127 292.397 348.452 292.397Z" fill="white"/>
<path d="M450.085 289.517C450.085 289.517 450.085 289.723 450.085 289.517C450.085 289.723 449.879 289.723 449.879 289.928C449.879 290.134 449.674 290.134 449.674 290.34C449.674 290.545 449.468 290.545 449.468 290.751C449.468 290.957 449.262 290.957 449.262 291.163C449.056 291.574 448.645 291.78 448.439 291.986C448.234 292.191 448.028 292.191 447.616 292.397C447.411 292.397 447.205 292.603 446.999 292.603C446.794 292.603 446.588 292.603 446.176 292.603H407.292C407.087 292.603 406.675 292.603 406.469 292.603C405.646 292.397 405.029 291.986 404.412 291.574C404.206 291.368 404.001 291.163 404.001 290.957C403.795 290.751 403.795 290.545 403.589 290.34C403.589 289.928 403.383 289.517 403.383 289.311L378.901 197.964L355.858 108.675C355.858 108.469 356.064 108.263 356.27 108.058C356.27 107.852 356.475 107.852 356.475 107.646C356.475 107.44 356.681 107.44 356.681 107.235C356.887 107.029 357.093 106.823 357.298 106.617C357.504 106.412 357.71 106.412 357.916 106.206C358.327 106.412 358.944 106.206 359.561 106.206H398.446C398.651 106.206 399.063 106.206 399.269 106.206C399.68 106.206 399.886 106.412 400.092 106.617C400.297 106.617 400.297 106.823 400.503 106.823C400.915 107.029 401.326 107.44 401.532 107.646C401.737 107.852 401.737 107.852 401.943 108.058C402.149 108.263 402.355 108.675 402.355 109.086L426.837 200.639L450.085 287.46C450.291 288.077 450.291 288.9 450.085 289.517Z" fill="#F3D398"/>
<path opacity="0.5" d="M403.384 289.311C403.384 289.516 403.589 289.928 403.589 290.134C403.589 289.928 403.384 289.722 403.384 289.516V289.311Z" fill="white"/>
<path opacity="0.5" d="M357.299 106.823C357.093 107.028 356.887 107.234 356.682 107.44C356.887 107.234 357.093 107.028 357.299 106.823Z" fill="white"/>
<path d="M497.817 111.143L456.259 266.474L432.599 178.419L451.114 108.88C451.525 107.234 453.173 106 454.819 106H493.908C496.583 106.206 498.64 108.675 497.817 111.143Z" fill="white"/>
<path d="M497.817 111.143L456.259 266.474L432.599 178.419L451.114 108.88C451.525 107.234 453.173 106 454.819 106H493.908C496.583 106.206 498.64 108.675 497.817 111.143Z" fill="#F3D398"/>
</g>
</g>
<defs>
<filter id="filter0_d" x="0" y="0" width="708" height="408" filterUnits="userSpaceOnUse" color-interpolation-filters="sRGB">
<feFlood flood-opacity="0" result="BackgroundImageFix"/>
<feColorMatrix in="SourceAlpha" type="matrix" values="0 0 0 0 0 0 0 0 0 0 0 0 0 0 0 0 0 0 127 0"/>
<feOffset dy="4"/>
<feGaussianBlur stdDeviation="2"/>
<feColorMatrix type="matrix" values="0 0 0 0 0 0 0 0 0 0 0 0 0 0 0 0 0 0 0.25 0"/>
<feBlend mode="normal" in2="BackgroundImageFix" result="effect1_dropShadow"/>
<feBlend mode="normal" in="SourceGraphic" in2="effect1_dropShadow" result="shape"/>
</filter>
<filter id="filter1_d" x="206" y="106" width="296" height="195.2" filterUnits="userSpaceOnUse" color-interpolation-filters="sRGB">
<feFlood flood-opacity="0" result="BackgroundImageFix"/>
<feColorMatrix in="SourceAlpha" type="matrix" values="0 0 0 0 0 0 0 0 0 0 0 0 0 0 0 0 0 0 127 0"/>
<feOffset dy="4"/>
<feGaussianBlur stdDeviation="2"/>
<feColorMatrix type="matrix" values="0 0 0 0 0 0 0 0 0 0 0 0 0 0 0 0 0 0 0.25 0"/>
<feBlend mode="normal" in2="BackgroundImageFix" result="effect1_dropShadow"/>
<feBlend mode="normal" in="SourceGraphic" in2="effect1_dropShadow" result="shape"/>
</filter>
<clipPath id="clip0">
<rect x="210" y="106" width="288" height="187.2" fill="white"/>
</clipPath>
</defs>
</svg>
