<svg width="245" height="200" viewBox="0 0 245 200" fill="none" xmlns="http://www.w3.org/2000/svg">
<g clip-path="url(#clip0)">
<path d="M244.005 85.8774H155.252V61.345H244.005V85.8774Z" fill="#E669A2"/>
<path d="M232.477 85.8777H155.252V24.5198H232.477V85.8777Z" fill="#F3BE26"/>
<path d="M200.572 85.8775H155.252V0H200.572V85.8775Z" fill="#EE9C34"/>
<path d="M209.488 85.8774H155.252V9.58252H209.488V85.8774V85.8774Z" fill="#F3BC87"/>
<path d="M155.239 9.59717V85.8698H200.567V9.59717H155.239V9.59717Z" fill="#E3721C"/>
<path d="M109.806 85.8774H155.252V98.1449H109.806V85.8774Z" fill="#AD1B02"/>
<path d="M155.239 24.5061V85.8697H209.514V24.5061H155.239V24.5061Z" fill="#E88D14"/>
<path d="M155.239 24.5061V85.8697H200.567V24.5061H155.239V24.5061Z" fill="#D85604"/>
<path d="M183.593 85.8774H155.252V49.0493H183.593V85.8774Z" fill="#C14303"/>
<path d="M155.239 61.3625V85.8696H232.504V61.3625H155.239Z" fill="#DB4E18"/>
<path d="M155.239 61.3625V85.8696H209.514V61.3625H155.239Z" fill="#D1390D"/>
<path d="M155.239 61.3625V85.8696H200.567V61.3625H155.239Z" fill="#C22303"/>
<path d="M155.239 61.3625V85.8696H183.621V61.3625H155.239Z" fill="#AD1B02"/>
<path d="M165.133 132.082C157.401 133.567 153.277 139.876 153.277 150.825C153.277 161.959 158.775 169.381 166.851 169.381C170.804 169.381 174.24 167.897 181.457 164C181.457 173.093 181.457 173.093 181.457 173.093C172.694 177.546 167.539 178.66 160.665 178.66C152.933 178.66 147.434 176.618 143.138 171.608C138.671 166.783 136.265 160.474 136.265 153.237C136.265 137.464 147.262 126.515 163.243 126.515C173.725 126.515 181.114 131.897 181.114 139.505C181.114 144.515 177.677 148.041 172.694 148.041C170.116 148.041 168.054 147.113 165.133 145.443" fill="black"/>
<path d="M126.47 153.237C133.516 143.773 136.093 139.876 136.093 135.237C136.093 130.598 132.656 126.515 127.845 126.515C125.096 126.515 122.518 128.185 121.315 129.67C121.315 149.154 121.315 149.154 121.315 149.154C109.802 165.856 109.802 165.856 109.802 165.856C109.802 128 109.802 128 109.802 128C98.8049 128 98.805 128 98.805 128C80.5905 160.474 80.5905 160.474 80.5905 160.474C80.5905 128 80.5905 128 80.5905 128C74.4044 128 74.4044 128 74.4044 128C57.7364 132.082 57.7365 132.082 57.7365 132.082C57.7365 136.721 57.7365 136.721 57.7365 136.721C66.8437 137.649 66.8437 137.649 66.8437 137.649C66.8437 177.917 66.8437 177.917 66.8437 177.917C78.3566 177.917 78.3566 177.917 78.3566 177.917C95.8838 146.742 95.8838 146.742 95.8838 146.742C95.8838 177.917 95.8838 177.917 95.8838 177.917C108.771 177.917 108.771 177.917 108.771 177.917" fill="black"/>
<path d="M22.854 171.608C24.2287 171.608 24.5724 171.608 25.4315 171.608C34.7106 171.608 39.8657 165.484 39.8657 153.237C39.8657 143.031 35.7416 137.464 28.0091 137.464C26.978 137.464 25.4315 137.649 22.854 138.206V171.608ZM22.854 193.505C30.4147 195.361 30.4147 195.361 30.4147 195.361C30.4147 200 30.4147 200 30.4147 200C0.687337 200 0.687341 200 0.687341 200C0.687341 195.361 0.687341 195.361 0.687341 195.361C7.56073 193.505 7.56073 193.505 7.56073 193.505C7.56073 137.464 7.56073 137.464 7.56073 137.464C-9.30806e-07 137.464 0 137.464 0 137.464C0 132.824 0 132.824 0 132.824C18.0426 126.886 18.0426 126.886 18.0426 126.886C22.854 126.886 22.854 126.886 22.854 126.886C22.854 133.567 22.854 133.567 22.854 133.567C31.2739 128 34.1951 127.072 38.6628 127.072C48.6292 127.072 56.1899 137.092 56.1899 151.01C56.1899 166.969 46.0517 177.917 30.5866 177.917C28.8682 177.917 25.947 177.732 22.854 177.546" fill="black"/>
</g>
<defs>
<clipPath id="clip0">
<rect width="244.005" height="200" fill="white"/>
</clipPath>
</defs>
</svg>
