<svg width="708" height="408" viewBox="0 0 708 408" fill="none" xmlns="http://www.w3.org/2000/svg">
<g filter="url(#filter0_d)">
<rect x="4" width="700" height="400" fill="#EE3C4C"/>
</g>
<g filter="url(#filter1_d)">
<path d="M354 56C274.609 56 210 120.609 210 200C210 279.39 274.609 344 354 344C433.391 344 498 279.39 498 200C498 120.609 433.391 56 354 56ZM342.83 81.0545C343.069 81.0163 343.326 81.0928 343.565 81.0545V187.478H315.377C311.915 157.143 295.012 130.649 270.522 114.058C289.624 95.9119 314.747 83.826 342.83 81.0545ZM364.435 81.0435C392.807 83.6794 418.214 95.7478 437.478 114.05C412.988 130.643 396.085 157.14 392.623 187.478H364.435V81.0435ZM254.812 126.957C275.306 140.352 289.846 162.048 293.478 187.478H232.957C235.093 165.15 242.832 144.457 254.812 126.957ZM453.188 126.957C465.168 144.456 472.907 165.15 475.043 187.478H414.522C418.154 162.048 432.694 140.352 453.188 126.957ZM232.957 212.522H293.478C289.875 237.959 275.349 259.655 254.812 273.043C242.803 255.544 235.076 234.858 232.957 212.522ZM315.424 218.783H343.565V325.217C315.181 322.579 289.769 310.475 270.522 292.128C295.028 275.545 311.981 249.144 315.424 218.783ZM364.435 218.783H392.576C396.019 249.144 412.972 275.545 437.478 292.128C418.231 310.475 392.819 322.579 364.435 325.217V218.783ZM414.522 212.522H475.043C472.924 234.858 465.197 255.544 453.188 273.043C432.651 259.655 418.125 237.959 414.522 212.522Z" fill="white"/>
</g>
<defs>
<filter id="filter0_d" x="0" y="0" width="708" height="408" filterUnits="userSpaceOnUse" color-interpolation-filters="sRGB">
<feFlood flood-opacity="0" result="BackgroundImageFix"/>
<feColorMatrix in="SourceAlpha" type="matrix" values="0 0 0 0 0 0 0 0 0 0 0 0 0 0 0 0 0 0 127 0"/>
<feOffset dy="4"/>
<feGaussianBlur stdDeviation="2"/>
<feColorMatrix type="matrix" values="0 0 0 0 0 0 0 0 0 0 0 0 0 0 0 0 0 0 0.25 0"/>
<feBlend mode="normal" in2="BackgroundImageFix" result="effect1_dropShadow"/>
<feBlend mode="normal" in="SourceGraphic" in2="effect1_dropShadow" result="shape"/>
</filter>
<filter id="filter1_d" x="206" y="56" width="296" height="296" filterUnits="userSpaceOnUse" color-interpolation-filters="sRGB">
<feFlood flood-opacity="0" result="BackgroundImageFix"/>
<feColorMatrix in="SourceAlpha" type="matrix" values="0 0 0 0 0 0 0 0 0 0 0 0 0 0 0 0 0 0 127 0"/>
<feOffset dy="4"/>
<feGaussianBlur stdDeviation="2"/>
<feColorMatrix type="matrix" values="0 0 0 0 0 0 0 0 0 0 0 0 0 0 0 0 0 0 0.25 0"/>
<feBlend mode="normal" in2="BackgroundImageFix" result="effect1_dropShadow"/>
<feBlend mode="normal" in="SourceGraphic" in2="effect1_dropShadow" result="shape"/>
</filter>
</defs>
</svg>
