<svg width="708" height="408" viewBox="0 0 708 408" fill="none" xmlns="http://www.w3.org/2000/svg">
<g filter="url(#filter0_d)">
<rect x="4" width="700" height="400" fill="#8C79B0"/>
<g filter="url(#filter1_d)">
<path d="M208.429 193.228H203.956V160.523H208.398L208.429 193.228Z" fill="white"/>
<path d="M236.826 193.228H232.783V178.561C232.894 176.928 232.51 175.299 231.68 173.884C231.19 173.311 230.564 172.867 229.858 172.591C229.153 172.315 228.389 172.217 227.636 172.305C226.961 172.314 226.291 172.416 225.645 172.609C224.864 172.846 224.151 173.262 223.562 173.824C222.856 174.512 222.303 175.34 221.938 176.253C221.451 177.511 221.222 178.854 221.264 180.201V193.198H217.251V169.39H221.081V172.761C221.285 172.457 221.591 172.072 222 171.607C222.441 171.1 222.945 170.651 223.501 170.271C224.145 169.819 224.845 169.452 225.584 169.177C226.467 168.859 227.401 168.705 228.341 168.722C229.31 168.724 230.277 168.836 231.22 169.056C232.207 169.278 233.135 169.702 233.947 170.301C234.819 170.964 235.513 171.83 235.969 172.822C236.54 174.133 236.812 175.554 236.765 176.982L236.826 193.228Z" fill="white"/>
<path d="M249.508 172.73V193.228H245.465V172.73H242.156V169.39H245.465V165.29C245.4 164.548 245.514 163.8 245.796 163.109C246.078 162.417 246.521 161.802 247.088 161.312C248.449 160.401 250.076 159.963 251.714 160.067H252.602H253.552V163.742H252.725H251.898C251.556 163.705 251.209 163.746 250.886 163.862C250.562 163.978 250.269 164.165 250.029 164.41C249.624 165.042 249.441 165.789 249.508 166.536V169.572H253.613V172.73H249.508Z" fill="white"/>
<path d="M257.504 181.294C257.506 179.741 257.733 178.197 258.178 176.709C258.601 175.247 259.297 173.877 260.23 172.67C261.233 171.395 262.516 170.364 263.981 169.655C265.446 168.946 267.055 168.577 268.685 168.577C270.316 168.577 271.925 168.946 273.39 169.655C274.855 170.364 276.137 171.395 277.14 172.67C278.073 173.877 278.769 175.247 279.193 176.709C280.071 179.683 280.071 182.844 279.193 185.819C278.769 187.28 278.073 188.651 277.14 189.858C276.137 191.132 274.855 192.163 273.39 192.872C271.925 193.582 270.316 193.95 268.685 193.95C267.055 193.95 265.446 193.582 263.981 192.872C262.516 192.163 261.233 191.132 260.23 189.858C259.297 188.651 258.601 187.28 258.178 185.819C257.738 184.35 257.511 182.826 257.504 181.294V181.294ZM261.701 181.294C261.713 182.221 261.806 183.146 261.976 184.057C262.155 185.119 262.507 186.145 263.018 187.094C263.533 188.05 264.267 188.872 265.162 189.493C266.229 190.134 267.453 190.472 268.701 190.472C269.948 190.472 271.172 190.134 272.239 189.493C273.134 188.872 273.868 188.05 274.383 187.094C274.894 186.145 275.246 185.119 275.425 184.057C275.596 183.146 275.688 182.221 275.7 181.294C275.688 180.367 275.595 179.442 275.425 178.531C275.245 177.469 274.893 176.444 274.383 175.494C273.867 174.539 273.133 173.717 272.239 173.095C271.172 172.454 269.948 172.116 268.701 172.116C267.453 172.116 266.229 172.454 265.162 173.095C264.268 173.717 263.534 174.539 263.018 175.494C262.508 176.444 262.156 177.469 261.976 178.531C261.796 179.441 261.693 180.366 261.67 181.294H261.701Z" fill="white"/>
<path d="M290.772 193.228H286.729V169.39H290.558V173.338C291.294 172.07 292.272 170.956 293.437 170.058C294.556 169.196 295.942 168.745 297.358 168.783H297.971H298.431V173.095H296.899C296.026 173.075 295.159 173.241 294.356 173.581C293.621 173.906 292.963 174.382 292.426 174.978C291.893 175.573 291.477 176.264 291.201 177.012C290.913 177.79 290.767 178.613 290.772 179.442V193.228Z" fill="white"/>
<path d="M303.73 169.39H307.529V172.761L308.417 171.607C308.837 171.102 309.321 170.653 309.857 170.271C310.497 169.813 311.198 169.445 311.94 169.177C312.883 168.845 313.881 168.691 314.881 168.722C315.798 168.697 316.712 168.841 317.577 169.147C318.238 169.397 318.858 169.745 319.415 170.18C319.864 170.536 320.248 170.968 320.548 171.455L321.253 172.609C321.743 172.062 322.233 171.546 322.723 171.06C323.192 170.585 323.717 170.167 324.285 169.815C324.879 169.467 325.518 169.201 326.185 169.026C326.974 168.818 327.788 168.716 328.605 168.722C329.361 168.744 330.112 168.856 330.841 169.056C331.72 169.285 332.543 169.688 333.261 170.24C334.092 170.892 334.762 171.723 335.222 172.67C335.799 173.947 336.072 175.34 336.018 176.739V193.228H332.036V177.832C332.094 176.445 331.765 175.068 331.086 173.854C330.688 173.313 330.152 172.888 329.533 172.621C328.913 172.354 328.234 172.256 327.563 172.336C326.753 172.322 325.953 172.51 325.235 172.882C324.553 173.236 323.949 173.721 323.458 174.31C322.965 174.918 322.582 175.606 322.325 176.344C322.059 177.095 321.925 177.886 321.927 178.682V193.228H317.944V176.739C317.944 176.229 317.892 175.72 317.791 175.221C317.694 174.711 317.496 174.226 317.209 173.793C316.906 173.365 316.508 173.012 316.045 172.761C315.477 172.475 314.844 172.339 314.207 172.366C313.542 172.377 312.883 172.479 312.246 172.67C311.466 172.907 310.752 173.323 310.163 173.884C309.457 174.573 308.904 175.401 308.54 176.314C308.053 177.572 307.824 178.914 307.866 180.261V193.259H303.73V169.39Z" fill="white"/>
<path d="M343.83 176.648C343.817 175.393 344.078 174.15 344.596 173.004C345.058 172.033 345.752 171.189 346.617 170.544C347.533 169.878 348.575 169.403 349.681 169.147C350.997 168.85 352.344 168.707 353.694 168.722H355.011C355.64 168.78 356.265 168.882 356.88 169.026C357.572 169.188 358.249 169.411 358.901 169.694C359.577 169.983 360.199 170.383 360.739 170.878C361.36 171.438 361.85 172.124 362.178 172.889C362.506 173.654 362.663 174.481 362.639 175.312V189.007C362.639 189.949 363.068 190.404 363.987 190.404H364.599H365.304V193.441L364.293 193.744C363.905 193.855 363.502 193.907 363.098 193.896C362.369 193.912 361.643 193.799 360.954 193.562C360.473 193.397 360.041 193.115 359.698 192.742C359.412 192.406 359.203 192.013 359.085 191.588C358.958 191.152 358.876 190.705 358.84 190.252C358.442 190.677 357.982 191.133 357.492 191.558C356.942 192.043 356.335 192.461 355.685 192.803C354.917 193.208 354.105 193.523 353.265 193.744C352.264 193.996 351.234 194.119 350.201 194.109C349.159 194.13 348.122 193.965 347.138 193.623C346.257 193.317 345.445 192.842 344.749 192.226C344.078 191.627 343.546 190.891 343.186 190.07C342.809 189.187 342.622 188.235 342.635 187.276C342.653 186.644 342.725 186.014 342.849 185.394C343.007 184.569 343.33 183.784 343.799 183.086C344.366 182.258 345.108 181.564 345.974 181.051C347.195 180.356 348.554 179.931 349.956 179.806L356.635 178.986L357.37 178.834C357.631 178.756 357.872 178.621 358.074 178.439C358.313 178.212 358.492 177.931 358.595 177.62C358.733 177.157 358.795 176.675 358.779 176.192C358.779 173.621 356.89 172.336 353.112 172.336C352.161 172.298 351.212 172.453 350.324 172.791C349.709 173.046 349.163 173.441 348.731 173.945C348.364 174.392 348.093 174.909 347.935 175.463C347.796 175.951 347.693 176.449 347.628 176.951L343.83 176.648ZM358.626 181.081L358.044 181.446C357.69 181.599 357.32 181.711 356.941 181.78L355.042 182.144L351.978 182.569L350.355 182.873C349.769 183.002 349.202 183.206 348.67 183.48C348.15 183.751 347.7 184.135 347.353 184.604C346.981 185.149 346.798 185.799 346.832 186.456C346.769 187.564 347.142 188.653 347.873 189.493C348.323 189.894 348.853 190.198 349.427 190.386C350.002 190.575 350.61 190.643 351.212 190.586C352.148 190.592 353.079 190.448 353.969 190.161C354.814 189.893 355.61 189.493 356.328 188.977C356.998 188.502 357.57 187.904 358.013 187.216C358.437 186.553 358.66 185.783 358.656 184.999L358.626 181.081Z" fill="white"/>
<path d="M376.148 172.731V188.279C376.128 188.649 376.213 189.017 376.393 189.341C376.547 189.591 376.771 189.792 377.037 189.918C377.286 190.04 377.556 190.112 377.833 190.131H380.008V193.168L378.109 193.38H376.975C376.14 193.405 375.309 193.271 374.525 192.985C373.948 192.768 373.44 192.401 373.054 191.923C372.692 191.446 372.441 190.897 372.319 190.313C372.174 189.645 372.102 188.962 372.105 188.279V172.731H368.735V169.39H371.982V162.74H376.148V169.39H380.008V172.731H376.148Z" fill="white"/>
<path d="M386.165 165.078V160.523H390.209V165.078H386.165ZM390.209 193.228H386.165V169.39H390.209V193.228Z" fill="white"/>
<path d="M397.01 181.294C397.012 179.742 397.239 178.197 397.683 176.709C398.107 175.247 398.803 173.877 399.736 172.67C400.663 171.468 401.844 170.484 403.198 169.785C405.424 168.626 407.992 168.28 410.45 168.807C412.908 169.334 415.102 170.702 416.646 172.67C417.579 173.877 418.275 175.247 418.698 176.709C419.575 179.683 419.575 182.844 418.698 185.819C418.275 187.281 417.579 188.651 416.646 189.858C415.643 191.132 414.36 192.163 412.895 192.872C411.43 193.582 409.821 193.95 408.191 193.95C406.56 193.95 404.951 193.582 403.486 192.872C402.021 192.163 400.739 191.132 399.736 189.858C398.803 188.651 398.107 187.281 397.683 185.819C397.245 184.35 397.018 182.826 397.01 181.294V181.294ZM401.206 181.294C401.22 182.221 401.312 183.146 401.482 184.058C401.661 185.119 402.013 186.144 402.524 187.094C403.04 188.049 403.774 188.87 404.668 189.493C405.734 190.137 406.958 190.478 408.206 190.478C409.454 190.478 410.678 190.137 411.744 189.493C412.641 188.873 413.376 188.051 413.889 187.094C414.4 186.145 414.752 185.119 414.93 184.058C415.102 183.146 415.194 182.221 415.206 181.294C415.194 180.367 415.102 179.442 414.93 178.531C414.751 177.469 414.4 176.444 413.889 175.494C413.375 174.538 412.64 173.716 411.744 173.095C410.677 172.454 409.454 172.116 408.206 172.116C406.959 172.116 405.735 172.454 404.668 173.095C403.774 173.718 403.04 174.54 402.524 175.494C402.014 176.444 401.662 177.469 401.482 178.531C401.302 179.442 401.199 180.366 401.176 181.294H401.206Z" fill="white"/>
<path d="M445.564 193.228H441.521V178.561C441.634 176.928 441.25 175.298 440.418 173.884C439.928 173.311 439.302 172.866 438.596 172.591C437.891 172.315 437.127 172.217 436.374 172.305C435.699 172.314 435.029 172.416 434.383 172.609C433.613 172.85 432.91 173.266 432.33 173.824C431.624 174.512 431.071 175.34 430.707 176.253C430.22 177.511 429.991 178.853 430.033 180.201V193.198H425.989V169.39H429.788V172.761C430.002 172.457 430.309 172.062 430.707 171.607C431.148 171.1 431.653 170.651 432.208 170.271C432.852 169.819 433.552 169.452 434.291 169.177C435.174 168.86 436.109 168.705 437.048 168.722C438.018 168.724 438.984 168.836 439.928 169.056C440.914 169.278 441.843 169.702 442.654 170.301C443.526 170.964 444.22 171.83 444.676 172.821C445.237 174.135 445.499 175.556 445.442 176.982L445.564 193.228Z" fill="white"/>
<path d="M489.094 170.058C489.052 168.993 488.759 167.953 488.237 167.021C487.762 166.204 487.101 165.507 486.307 164.987C485.514 164.467 484.631 164.097 483.703 163.894C482.778 163.69 481.833 163.588 480.885 163.59C480.094 163.6 479.305 163.671 478.526 163.802C477.668 163.936 476.839 164.213 476.075 164.622C475.302 165.038 474.64 165.632 474.145 166.353C473.577 167.262 473.309 168.323 473.379 169.39C473.355 169.995 473.47 170.597 473.716 171.151C473.93 171.601 474.232 172.003 474.605 172.336C474.977 172.658 475.401 172.915 475.861 173.095C476.319 173.279 476.79 173.431 477.27 173.55L486.705 175.706C487.765 175.925 488.794 176.272 489.768 176.739C491.58 177.616 492.984 179.148 493.689 181.021C494.094 182.109 494.291 183.262 494.272 184.422C494.337 186.114 493.911 187.79 493.046 189.25C492.284 190.49 491.234 191.531 489.983 192.287C488.684 193.045 487.265 193.579 485.786 193.866C483.051 194.412 480.238 194.463 477.484 194.018C476.531 193.86 475.597 193.606 474.697 193.259C474.014 192.992 473.366 192.645 472.767 192.226C472.309 191.906 471.869 191.561 471.449 191.194C470.202 190.142 469.261 188.779 468.723 187.246C468.305 185.836 468.098 184.373 468.11 182.903H472.307C472.255 184.188 472.54 185.465 473.134 186.608C473.657 187.542 474.391 188.342 475.279 188.947C476.207 189.558 477.248 189.981 478.342 190.192C479.347 190.421 480.374 190.544 481.405 190.556C482.308 190.544 483.208 190.473 484.101 190.343C485.074 190.218 486.024 189.952 486.919 189.554C487.774 189.172 488.528 188.6 489.125 187.884C489.755 187.067 490.07 186.055 490.013 185.029C490.033 184.296 489.919 183.566 489.676 182.873C489.444 182.275 489.052 181.75 488.543 181.355C487.886 180.863 487.151 180.483 486.368 180.231C485.469 179.907 484.346 179.583 482.998 179.259L476.228 177.711C475.541 177.553 474.866 177.35 474.206 177.103C473.375 176.794 472.599 176.353 471.909 175.798C471.138 175.175 470.493 174.412 470.01 173.55C469.44 172.465 469.166 171.251 469.213 170.028C469.213 168.756 469.431 167.493 469.857 166.293C470.286 165.086 470.976 163.988 471.878 163.074C472.887 162.074 474.098 161.297 475.432 160.796C476.97 160.117 478.621 159.726 480.303 159.642C482.633 159.552 484.958 159.934 487.134 160.766C488.612 161.362 489.924 162.299 490.963 163.499C491.857 164.506 492.488 165.716 492.801 167.021C493.035 168.021 493.199 169.036 493.291 170.058H489.094Z" fill="white"/>
<path d="M516.573 177.407C516.426 175.995 515.812 174.672 514.827 173.641C513.758 172.706 512.36 172.226 510.937 172.305C509.861 172.28 508.8 172.553 507.873 173.095C507.027 173.617 506.323 174.337 505.821 175.19C505.274 176.129 504.9 177.158 504.718 178.227C504.511 179.277 504.408 180.345 504.412 181.415C504.417 182.432 504.499 183.447 504.657 184.452C504.798 185.51 505.119 186.537 505.606 187.489C506.071 188.374 506.757 189.126 507.597 189.675C508.614 190.275 509.785 190.571 510.967 190.526C512.328 190.53 513.636 190.007 514.613 189.068C515.75 187.934 516.482 186.462 516.696 184.877H520.586C520.479 185.915 520.242 186.935 519.882 187.914C519.503 189.016 518.933 190.044 518.197 190.951C517.355 191.914 516.309 192.682 515.133 193.198C513.741 193.826 512.221 194.127 510.691 194.079C509.134 194.108 507.588 193.808 506.158 193.198C504.861 192.627 503.71 191.776 502.788 190.708C501.839 189.592 501.121 188.302 500.674 186.912C500.171 185.362 499.923 183.742 499.939 182.114C499.92 180.36 500.147 178.613 500.613 176.921C501.028 175.395 501.735 173.962 502.696 172.7C503.647 171.489 504.876 170.521 506.28 169.876C507.907 169.155 509.676 168.803 511.457 168.843C512.836 168.795 514.207 169.054 515.47 169.603C516.515 170.081 517.444 170.774 518.197 171.637C518.903 172.459 519.444 173.407 519.79 174.431C520.134 175.414 520.36 176.433 520.464 177.468L516.573 177.407Z" fill="white"/>
<path d="M546.441 193.228H542.397V177.65C542.403 176.906 542.331 176.163 542.183 175.433C542.068 174.829 541.817 174.258 541.448 173.763C541.061 173.286 540.553 172.919 539.977 172.7C539.225 172.416 538.423 172.282 537.618 172.305C536.796 172.309 535.979 172.443 535.198 172.7C534.379 172.972 533.634 173.43 533.023 174.036C532.336 174.734 531.813 175.574 531.492 176.496C531.074 177.707 530.877 178.982 530.91 180.262V193.259H526.866V160.523H530.91V172.67C531.175 172.305 531.522 171.89 531.951 171.425C532.391 170.946 532.885 170.518 533.422 170.149C534.028 169.739 534.687 169.412 535.382 169.178C536.211 168.903 537.081 168.769 537.955 168.783C538.925 168.785 539.891 168.897 540.835 169.117C541.821 169.339 542.75 169.763 543.561 170.362C544.434 171.024 545.129 171.89 545.583 172.882C546.155 174.194 546.427 175.615 546.38 177.043L546.441 193.228Z" fill="white"/>
<path d="M553.058 181.294C553.06 179.741 553.287 178.197 553.732 176.709C554.155 175.247 554.851 173.877 555.784 172.67C556.787 171.395 558.07 170.364 559.535 169.655C561 168.946 562.609 168.577 564.239 168.577C565.87 168.577 567.479 168.946 568.944 169.655C570.409 170.364 571.691 171.395 572.694 172.67C573.627 173.877 574.323 175.247 574.747 176.709C575.623 179.683 575.623 182.844 574.747 185.819C574.323 187.28 573.627 188.651 572.694 189.858C571.691 191.132 570.409 192.163 568.944 192.872C567.479 193.582 565.87 193.95 564.239 193.95C562.609 193.95 561 193.582 559.535 192.872C558.07 192.163 556.787 191.132 555.784 189.858C554.851 188.651 554.155 187.28 553.732 185.819C553.293 184.35 553.066 182.826 553.058 181.294V181.294ZM557.255 181.294C557.267 182.221 557.359 183.146 557.53 184.057C557.709 185.119 558.061 186.145 558.572 187.094C559.087 188.05 559.821 188.872 560.716 189.493C561.782 190.137 563.006 190.477 564.254 190.477C565.503 190.477 566.727 190.137 567.793 189.493C568.688 188.872 569.422 188.05 569.937 187.094C570.449 186.145 570.801 185.119 570.979 184.057C571.15 183.146 571.242 182.221 571.254 181.294C571.242 180.367 571.15 179.442 570.979 178.531C570.8 177.469 570.448 176.443 569.937 175.494C569.421 174.539 568.687 173.717 567.793 173.095C566.726 172.454 565.502 172.116 564.254 172.116C563.007 172.116 561.783 172.454 560.716 173.095C559.821 173.716 559.087 174.538 558.572 175.494C558.061 176.443 557.709 177.469 557.53 178.531C557.349 179.441 557.246 180.366 557.224 181.294H557.255Z" fill="white"/>
<path d="M580.75 181.294C580.753 179.741 580.98 178.197 581.424 176.709C581.848 175.247 582.544 173.877 583.477 172.67C584.48 171.395 585.762 170.364 587.227 169.655C588.692 168.946 590.301 168.577 591.932 168.577C593.562 168.577 595.171 168.946 596.636 169.655C598.101 170.364 599.384 171.395 600.387 172.67C601.32 173.877 602.016 175.247 602.439 176.709C603.316 179.683 603.316 182.844 602.439 185.819C602.016 187.28 601.32 188.651 600.387 189.858C599.384 191.132 598.101 192.163 596.636 192.872C595.171 193.582 593.562 193.95 591.932 193.95C590.301 193.95 588.692 193.582 587.227 192.872C585.762 192.163 584.48 191.132 583.477 189.858C582.544 188.651 581.848 187.28 581.424 185.819C580.986 184.35 580.759 182.826 580.75 181.294V181.294ZM584.947 181.294C584.959 182.221 585.051 183.146 585.223 184.057C585.401 185.119 585.753 186.145 586.265 187.094C586.779 188.05 587.514 188.872 588.409 189.493C589.475 190.137 590.699 190.477 591.947 190.477C593.195 190.477 594.419 190.137 595.485 189.493C596.38 188.872 597.115 188.05 597.63 187.094C598.141 186.145 598.493 185.119 598.671 184.057C598.843 183.146 598.935 182.221 598.947 181.294C598.935 180.367 598.842 179.442 598.671 178.531C598.493 177.469 598.141 176.443 597.63 175.494C597.114 174.539 596.38 173.717 595.485 173.095C594.418 172.454 593.195 172.116 591.947 172.116C590.7 172.116 589.476 172.454 588.409 173.095C587.514 173.716 586.779 174.538 586.265 175.494C585.753 176.443 585.401 177.469 585.223 178.531C585.052 179.442 584.959 180.367 584.947 181.294V181.294Z" fill="white"/>
<path d="M613.927 193.228H609.883V160.523H613.927V193.228Z" fill="white"/>
<path fill-rule="evenodd" clip-rule="evenodd" d="M129.945 173.641C130.313 171.971 137.543 171.88 137.083 173.975C135.326 180.588 132.925 187.015 129.915 193.167C127.464 198.816 126.851 203.583 128.169 206.377C128.865 208.148 130.029 209.7 131.538 210.872C134.519 212.75 138.033 213.623 141.556 213.362C144.492 213.508 147.427 213.054 150.179 212.028C152.93 211.003 155.44 209.427 157.551 207.399C159.663 205.372 161.331 202.935 162.453 200.241C163.575 197.548 164.125 194.654 164.071 191.74C164.071 174.704 152.431 169.633 147.008 166.505C145.385 164.744 147.59 160.432 149.122 160.432C153.013 160.432 171.301 169.542 171.301 192.165C171.093 199.789 167.949 207.045 162.514 212.444C157.08 217.842 149.767 220.974 142.076 221.196C129.026 221.196 122.655 214.789 120.633 208.017C118.917 202.521 121.215 195.111 124.248 188.612C125.779 185.363 126.055 184.513 127.096 182.114C128.304 179.37 129.328 176.55 130.16 173.672" fill="white"/>
<path fill-rule="evenodd" clip-rule="evenodd" d="M141.647 166.171C139.809 167.325 130.864 167.143 128.291 166.323C126.392 165.746 127.28 158.397 128.567 157.213C130.19 155.543 141.065 155.482 142.566 157.759C143.424 159.095 143.302 165.017 141.678 166.05" fill="white"/>
<path fill-rule="evenodd" clip-rule="evenodd" d="M98.1782 198.755C98.4233 237.868 151.328 240.783 164.316 219.223C165.113 217.522 171.822 217.188 172.496 219.223C149.336 256.301 91.5001 240.48 91.5001 198.694C91.4694 179.35 102.743 163.985 120.48 160.28C122.318 159.855 123.727 165.382 122.103 166.141C108.471 169.36 98.0863 184.361 98.1782 198.755" fill="white"/>
<path d="M203.773 205.375H614.968" stroke="white" stroke-width="0.5"/>
<path d="M188.976 158.458V243" stroke="white" stroke-width="0.5"/>
<path d="M552.874 225.537L554.589 227.237V233.827C554.207 234.165 553.762 234.424 553.278 234.591C552.794 234.758 552.282 234.828 551.771 234.799C547.942 234.799 545.644 230.335 545.644 226.235C545.644 222.135 547.911 217.671 551.771 217.671C552.196 217.651 552.62 217.724 553.012 217.887C553.405 218.05 553.755 218.298 554.038 218.613L556.795 221.316V217.307C555.431 216.626 553.931 216.256 552.404 216.225C550.877 216.193 549.363 216.501 547.972 217.125C546.581 217.749 545.348 218.675 544.364 219.833C543.381 220.991 542.671 222.352 542.288 223.817C541.904 225.283 541.856 226.815 542.148 228.301C542.439 229.787 543.063 231.189 543.972 232.405C544.881 233.621 546.054 234.62 547.403 235.329C548.753 236.037 550.245 236.437 551.771 236.499C553.833 236.707 555.904 236.191 557.622 235.042V227.268L559.338 225.567L552.874 225.537ZM509.343 216.426L511.028 218.127V234.495L509.343 236.195H515.807L514.092 234.495V218.157L515.807 216.457L509.343 216.426ZM492.219 226.417H499.755V234.495L498.04 236.195H504.503L502.819 234.495V218.157L504.503 216.457H498.04L499.755 218.157V224.717H492.219V218.036L493.935 216.335H487.44L489.156 218.036V234.404L487.44 236.104H493.935L492.219 234.404V226.417ZM483.029 230.213C483.074 229.48 482.919 228.749 482.579 228.097C482.24 227.445 481.728 226.896 481.099 226.508L476.29 223.472C475.714 223.182 475.223 222.751 474.863 222.219C474.504 221.687 474.288 221.073 474.237 220.435C474.306 219.678 474.659 218.974 475.226 218.462C475.794 217.951 476.534 217.668 477.301 217.671C477.761 217.631 478.223 217.738 478.618 217.975L480.64 220.465L482.631 217.095L478.679 216.366C478.16 216.303 477.636 216.303 477.117 216.366C476.391 216.333 475.666 216.446 474.985 216.698C474.305 216.95 473.683 217.336 473.156 217.832C472.63 218.328 472.21 218.925 471.922 219.586C471.634 220.248 471.484 220.96 471.48 221.68C471.501 222.596 471.757 223.492 472.223 224.284C472.689 225.075 473.351 225.736 474.145 226.205L478.955 229.241C479.385 229.522 479.737 229.906 479.978 230.357C480.219 230.808 480.341 231.312 480.333 231.823C480.35 232.281 480.273 232.737 480.105 233.164C479.938 233.591 479.685 233.98 479.361 234.307C479.037 234.634 478.649 234.892 478.221 235.065C477.793 235.238 477.334 235.323 476.872 235.315C476.304 235.335 475.742 235.198 475.248 234.92L473.043 232.157L471.113 235.649L475.248 236.378C475.747 236.435 476.251 236.435 476.749 236.378C477.598 236.42 478.446 236.288 479.24 235.988C480.033 235.688 480.756 235.229 481.361 234.637C481.966 234.046 482.44 233.337 482.754 232.554C483.067 231.772 483.213 230.933 483.182 230.092L483.029 230.213ZM458.675 220.982L461.341 228.907H455.796L458.675 220.982ZM454.05 234.434L455.367 230.517H461.923L463.24 234.434L461.555 236.104H468.325L466.548 234.373L460.422 216.305H458.553L452.181 234.373L450.435 236.104H455.796L454.05 234.434ZM432.606 236.104L436.742 223.259L440.755 236.104H442.623L448.413 218.036L450.129 216.275H444.768L446.453 217.945L442.348 231.094L438.427 217.945L440.111 216.275H433.341L435.057 218.036L435.731 220.222L432.3 231.124L428.226 218.127L429.91 216.457H423.14L424.856 218.218L430.523 236.287L432.606 236.104ZM404.147 224.231C405.005 218.886 405.618 217.702 406.414 217.702C407.203 217.761 407.939 218.12 408.467 218.704C408.603 218.832 408.784 218.904 408.972 218.904C409.16 218.904 409.341 218.832 409.478 218.704C409.676 218.549 409.84 218.357 409.962 218.138C410.083 217.918 410.158 217.677 410.182 217.429C410.182 216.76 409.416 216.214 408.344 216.214C407.437 216.273 406.552 216.513 405.741 216.92C404.931 217.327 404.211 217.893 403.627 218.583C402.347 220.22 401.542 222.173 401.299 224.231H399.583L398.756 225.081V225.354H400.962C400.594 227.784 400.288 229.94 399.797 233.402C399.687 235.87 399.127 238.298 398.143 240.568C398.055 240.669 397.947 240.75 397.826 240.808C397.705 240.865 397.573 240.898 397.439 240.902C396.977 240.808 396.533 240.644 396.121 240.417C395.977 240.356 395.817 240.341 395.664 240.374C395.51 240.406 395.371 240.485 395.264 240.599C394.948 240.928 394.763 241.359 394.743 241.813C394.743 242.451 395.447 242.694 395.938 242.694C397.211 242.508 398.369 241.858 399.185 240.872C401.2 238.113 402.446 234.877 402.8 231.489C403.198 229.515 403.474 227.784 403.872 225.415L406.721 225.142L407.364 224.292L404.147 224.231ZM389.168 224.747C390.301 224.747 391.036 225.749 391.036 227.784C391.169 229.108 390.995 230.444 390.528 231.691C390.06 232.938 389.312 234.063 388.34 234.981C388.117 235.013 387.89 235.013 387.667 234.981C386.38 234.981 385.645 233.614 385.645 231.458C385.645 227.237 387.483 225.142 388.34 224.777C388.612 224.667 388.905 224.615 389.198 224.626L389.168 224.747ZM390.148 223.411C388.904 223.454 387.692 223.809 386.625 224.443C385.364 225.218 384.329 226.307 383.625 227.602C382.921 228.897 382.572 230.352 382.612 231.823C382.541 232.373 382.591 232.933 382.759 233.463C382.926 233.993 383.207 234.481 383.583 234.893C383.958 235.305 384.418 235.632 384.933 235.852C385.447 236.071 386.004 236.178 386.564 236.165C388.244 236.053 389.838 235.391 391.098 234.282C392.053 233.406 392.817 232.344 393.344 231.164C393.871 229.984 394.149 228.71 394.161 227.419C394.206 226.89 394.135 226.356 393.954 225.856C393.772 225.355 393.484 224.9 393.11 224.519C392.735 224.139 392.282 223.843 391.781 223.652C391.281 223.461 390.745 223.379 390.209 223.411H390.148ZM355.899 217.884L360.831 227.055V234.525L359.116 236.226H365.58L363.895 234.525V227.085L368.796 218.157L370.512 216.457H365.12L366.805 218.127L362.976 225.203L359.055 218.127L360.74 216.457H353.97L355.899 217.884ZM345.515 234.525V218.066H348.854L351.121 220.344V216.457H336.692V220.344L338.959 218.066H342.451V234.556L340.736 236.256H347.199L345.515 234.525ZM325.817 216.305L327.502 218.006V234.373L325.817 236.074H332.281L330.565 234.373V218.157L332.281 216.457L325.817 216.305ZM321.008 230.244C321.056 229.51 320.902 228.778 320.562 228.125C320.222 227.472 319.709 226.924 319.078 226.539L314.268 223.502C313.692 223.213 313.201 222.781 312.842 222.25C312.482 221.718 312.267 221.103 312.216 220.465C312.285 219.708 312.638 219.004 313.205 218.493C313.772 217.981 314.512 217.699 315.279 217.702C315.74 217.662 316.201 217.768 316.596 218.006L318.618 220.496L320.609 217.125L316.658 216.396C316.139 216.333 315.614 216.333 315.095 216.396C314.37 216.359 313.644 216.468 312.962 216.716C312.279 216.965 311.655 217.347 311.126 217.84C310.596 218.334 310.173 218.929 309.881 219.588C309.59 220.248 309.435 220.96 309.428 221.68C309.449 222.596 309.704 223.492 310.171 224.284C310.637 225.075 311.298 225.736 312.093 226.205L316.903 229.241C317.333 229.522 317.685 229.906 317.926 230.357C318.167 230.808 318.289 231.312 318.281 231.823C318.273 232.711 317.911 233.561 317.275 234.186C316.638 234.812 315.777 235.163 314.881 235.163C314.313 235.183 313.751 235.046 313.257 234.768L311.052 232.005L309.061 235.618L313.196 236.347C313.695 236.405 314.198 236.405 314.697 236.347C315.52 236.372 316.339 236.232 317.105 235.936C317.872 235.639 318.571 235.193 319.16 234.624C319.749 234.054 320.216 233.373 320.533 232.62C320.851 231.867 321.012 231.059 321.008 230.244V230.244ZM294.938 218.097H296.93C297.409 218.124 297.877 218.244 298.309 218.451C298.741 218.659 299.128 218.948 299.446 219.304C299.765 219.659 300.01 220.073 300.167 220.523C300.324 220.972 300.39 221.448 300.361 221.923C300.378 222.853 300.029 223.753 299.389 224.433C298.749 225.113 297.867 225.52 296.93 225.567H294.938V218.097ZM304.527 234.586L300.177 226.569C301.216 226.267 302.135 225.652 302.805 224.808C303.474 223.964 303.862 222.935 303.914 221.862C303.714 220.241 302.88 218.763 301.59 217.746C300.301 216.729 298.66 216.255 297.021 216.426H290.374L292.089 218.127V234.495L290.374 236.256H296.868L295.153 234.556V227.146H297.389L302.168 236.256H306.457L304.527 234.586ZM285.656 236.287V232.369L283.39 234.647H278.121V226.448H282.042L283.757 228.148V223.138L282.042 224.838H278.121V218.066H283.604L285.871 220.344V216.457H273.219L274.935 218.157V234.525L273.219 236.226L285.656 236.287ZM260.169 216.487H253.614L255.329 218.248L260.996 236.317H262.804L268.593 218.248L270.37 216.487H264.887L266.572 218.157L262.467 231.306L258.546 218.157L260.169 216.487ZM243.382 216.487L245.067 218.188V234.556L243.382 236.256H249.846L248.13 234.556V218.157L249.846 216.457L243.382 216.487ZM225.431 234.707V220.405L235.662 236.256H236.979V218.036L238.695 216.335H233.426L235.141 218.036V229.332L226.84 216.305H221.846L223.562 218.006V234.373L221.846 236.074H227.238L225.431 234.707ZM203.589 231.124C203.78 232.727 204.558 234.204 205.774 235.276C206.991 236.348 208.562 236.94 210.19 236.94C211.818 236.94 213.39 236.348 214.606 235.276C215.823 234.204 216.601 232.727 216.792 231.124V218.157L218.507 216.457H213.208L214.923 218.157V230.942C214.923 232.021 214.491 233.056 213.721 233.819C212.951 234.582 211.907 235.011 210.818 235.011C209.73 235.011 208.686 234.582 207.916 233.819C207.146 233.056 206.713 232.021 206.713 230.942V218.157L208.429 216.457H201.935L203.65 218.157L203.589 231.124Z" fill="white"/>
<path d="M524.997 234.528V220.407L535.229 236.258H536.546V218.16L538.262 216.429H532.931L534.647 218.16V229.456L526.345 216.429H521.352L523.067 218.16V234.528L521.352 236.228H526.713L524.997 234.528Z" fill="white"/>
<path d="M603.236 234.528V220.407L613.467 236.258H614.785V218.16L616.5 216.429H611.17L612.885 218.16V229.456L604.584 216.429H599.59L601.306 218.16V234.528L599.59 236.228H604.982L603.236 234.528Z" fill="white"/>
<path d="M570.488 234.528V218.038H573.827L576.094 220.316V216.429H561.758V220.316L564.025 218.038H567.425V234.528L565.71 236.228H572.173L570.488 234.528Z" fill="white"/>
<path d="M582.711 226.359C582.711 222.441 583.722 217.674 587.551 217.674C591.381 217.674 592.361 222.441 592.361 226.359C592.361 230.276 591.35 235.044 587.551 235.044C583.753 235.044 582.711 230.276 582.711 226.359ZM578.943 226.359C578.943 231.521 582.252 236.684 587.551 236.684C592.851 236.684 596.129 231.521 596.129 226.359C596.129 221.196 592.82 216.034 587.551 216.034C582.282 216.034 578.943 221.196 578.943 226.359Z" fill="white"/>
</g>
</g>
<defs>
<filter id="filter0_d" x="0" y="0" width="708" height="408" filterUnits="userSpaceOnUse" color-interpolation-filters="sRGB">
<feFlood flood-opacity="0" result="BackgroundImageFix"/>
<feColorMatrix in="SourceAlpha" type="matrix" values="0 0 0 0 0 0 0 0 0 0 0 0 0 0 0 0 0 0 127 0"/>
<feOffset dy="4"/>
<feGaussianBlur stdDeviation="2"/>
<feColorMatrix type="matrix" values="0 0 0 0 0 0 0 0 0 0 0 0 0 0 0 0 0 0 0.25 0"/>
<feBlend mode="normal" in2="BackgroundImageFix" result="effect1_dropShadow"/>
<feBlend mode="normal" in="SourceGraphic" in2="effect1_dropShadow" result="shape"/>
</filter>
<filter id="filter1_d" x="87.5" y="156" width="533" height="95" filterUnits="userSpaceOnUse" color-interpolation-filters="sRGB">
<feFlood flood-opacity="0" result="BackgroundImageFix"/>
<feColorMatrix in="SourceAlpha" type="matrix" values="0 0 0 0 0 0 0 0 0 0 0 0 0 0 0 0 0 0 127 0"/>
<feOffset dy="4"/>
<feGaussianBlur stdDeviation="2"/>
<feColorMatrix type="matrix" values="0 0 0 0 0 0 0 0 0 0 0 0 0 0 0 0 0 0 0.25 0"/>
<feBlend mode="normal" in2="BackgroundImageFix" result="effect1_dropShadow"/>
<feBlend mode="normal" in="SourceGraphic" in2="effect1_dropShadow" result="shape"/>
</filter>
</defs>
</svg>
