<svg width="708" height="408" viewBox="0 0 708 408" fill="none" xmlns="http://www.w3.org/2000/svg">
<g filter="url(#filter0_d)">
<path d="M704 0H4V400H704V0Z" fill="white"/>
</g>
<g clip-path="url(#clip0)">
<path d="M543.449 179.664H405.43V144.337H543.449V179.664Z" fill="#E669A2"/>
<path d="M525.522 179.664H405.43V91.3083H525.522V179.664Z" fill="#F3BE26"/>
<path d="M475.907 179.664H405.43V56H475.907V179.664Z" fill="#EE9C34"/>
<path d="M489.772 179.664H405.43V69.799H489.772V179.664V179.664Z" fill="#F3BC87"/>
<path d="M405.411 69.8198V179.652H475.899V69.8198H405.411V69.8198Z" fill="#E3721C"/>
<path d="M334.758 179.664H405.43V197.329H334.758V179.664Z" fill="#AD1B02"/>
<path d="M405.411 91.2888V179.652H489.812V91.2888H405.411V91.2888Z" fill="#E88D14"/>
<path d="M405.411 91.2888V179.652H475.899V91.2888H405.411V91.2888Z" fill="#D85604"/>
<path d="M449.503 179.664H405.43V126.631H449.503V179.664Z" fill="#C14303"/>
<path d="M405.411 144.362V179.652H525.563V144.362H405.411Z" fill="#DB4E18"/>
<path d="M405.411 144.362V179.652H489.812V144.362H405.411Z" fill="#D1390D"/>
<path d="M405.411 144.362V179.652H475.899V144.362H405.411Z" fill="#C22303"/>
<path d="M405.411 144.362V179.652H449.546V144.362H405.411Z" fill="#AD1B02"/>
<path d="M420.796 246.198C408.772 248.336 402.358 257.421 402.358 273.187C402.358 289.22 410.909 299.909 423.469 299.909C429.615 299.909 434.959 297.771 446.182 292.16C446.182 305.253 446.182 305.253 446.182 305.253C432.554 311.667 424.537 313.27 413.849 313.27C401.824 313.27 393.273 310.331 386.592 303.116C379.645 296.168 375.904 287.083 375.904 276.661C375.904 253.948 393.006 238.182 417.857 238.182C434.157 238.182 445.648 245.931 445.648 256.887C445.648 264.102 440.303 269.179 432.554 269.179C428.546 269.179 425.339 267.843 420.796 265.438" fill="black"/>
<path d="M360.672 276.661C371.628 263.033 375.636 257.421 375.636 250.741C375.636 244.06 370.292 238.182 362.81 238.182C358.535 238.182 354.526 240.587 352.656 242.724C352.656 270.782 352.656 270.782 352.656 270.782C334.752 294.832 334.752 294.832 334.752 294.832C334.752 240.319 334.752 240.319 334.752 240.319C317.65 240.319 317.65 240.319 317.65 240.319C289.325 287.083 289.325 287.083 289.325 287.083C289.325 240.319 289.325 240.319 289.325 240.319C279.705 240.319 279.705 240.319 279.705 240.319C253.785 246.198 253.785 246.198 253.785 246.198C253.785 252.879 253.785 252.879 253.785 252.879C267.948 254.215 267.948 254.215 267.948 254.215C267.948 312.201 267.948 312.201 267.948 312.201C285.851 312.201 285.851 312.201 285.851 312.201C313.108 267.308 313.108 267.308 313.108 267.308C313.108 312.201 313.108 312.201 313.108 312.201C333.149 312.201 333.149 312.201 333.149 312.201" fill="black"/>
<path d="M199.54 303.116C201.678 303.116 202.212 303.116 203.548 303.116C217.978 303.116 225.995 294.297 225.995 276.661C225.995 261.964 219.581 253.948 207.557 253.948C205.953 253.948 203.548 254.215 199.54 255.016V303.116ZM199.54 334.647C211.298 337.32 211.298 337.32 211.298 337.32C211.298 344 211.298 344 211.298 344C165.069 344 165.069 344 165.069 344C165.069 337.32 165.069 337.32 165.069 337.32C175.758 334.647 175.758 334.647 175.758 334.647C175.758 253.948 175.758 253.948 175.758 253.948C164 253.948 164 253.948 164 253.948C164 247.267 164 247.267 164 247.267C192.058 238.716 192.058 238.716 192.058 238.716C199.54 238.716 199.54 238.716 199.54 238.716C199.54 248.336 199.54 248.336 199.54 248.336C212.634 240.319 217.176 238.983 224.124 238.983C239.623 238.983 251.38 253.413 251.38 273.454C251.38 296.435 235.614 312.201 211.565 312.201C208.893 312.201 204.35 311.934 199.54 311.667" fill="black"/>
</g>
<defs>
<filter id="filter0_d" x="0" y="0" width="708" height="408" filterUnits="userSpaceOnUse" color-interpolation-filters="sRGB">
<feFlood flood-opacity="0" result="BackgroundImageFix"/>
<feColorMatrix in="SourceAlpha" type="matrix" values="0 0 0 0 0 0 0 0 0 0 0 0 0 0 0 0 0 0 127 0" result="hardAlpha"/>
<feOffset dy="4"/>
<feGaussianBlur stdDeviation="2"/>
<feColorMatrix type="matrix" values="0 0 0 0 0 0 0 0 0 0 0 0 0 0 0 0 0 0 0.25 0"/>
<feBlend mode="normal" in2="BackgroundImageFix" result="effect1_dropShadow"/>
<feBlend mode="normal" in="SourceGraphic" in2="effect1_dropShadow" result="shape"/>
</filter>
<clipPath id="clip0">
<rect width="379.449" height="288" fill="white" transform="translate(164 56)"/>
</clipPath>
</defs>
</svg>
